<svg height="420pt" viewBox="0 -63 420.00015 420" width="420pt" xmlns="http://www.w3.org/2000/svg"><path d="m410 10.015625v273.800781l-171.601562-94v94l-228.398438-136.902344 228.398438-136.898437v94zm0 0" fill="#e48e66"/><path d="m415.101562 1.414062c-3.035156-1.8125-6.796874-1.886718-9.902343-.199218l-156.800781 85.898437v-77.097656c.011718-3.613281-1.941407-6.945313-5.097657-8.699219-3.144531-1.769531-6.992187-1.730468-10.101562.097656l-228.300781 136.902344c-3.019532 1.816406-4.8750005 5.074219-4.898438 8.597656-.0195312 3.535157 1.847656 6.816407 4.898438 8.601563l228.402343 136.898437c1.554688.890626 3.308594 1.371094 5.097657 1.402344 1.722656.019532 3.417968-.429687 4.902343-1.300781 3.125-1.789063 5.066407-5.101563 5.097657-8.699219v-77.101562l156.800781 85.898437c3.105469 1.691407 6.867187 1.613281 9.902343-.199219 3.019532-1.816406 4.875-5.074218 4.898438-8.597656v-273.800781c-.023438-3.523437-1.878906-6.785156-4.898438-8.601563zm-15.101562 265.5-156.800781-85.898437c-3.105469-1.667969-6.859375-1.59375-9.898438.199219-3.019531 1.816406-4.875 5.074218-4.902343 8.601562v76.398438l-198.898438-119.300782 198.898438-119.199218v76.398437c.027343 3.527344 1.882812 6.785157 4.902343 8.601563 3.03125 1.8125 6.796875 1.886718 9.898438.199218l156.800781-86zm0 0" fill="#63316d"/></svg>