<svg id="Layer_1" enable-background="new 0 0 511.449 511.449" height="512" viewBox="0 0 511.449 511.449" width="512" xmlns="http://www.w3.org/2000/svg"><path d="m436.508 74.941c-99.913-99.913-261.639-99.928-361.566 0-99.914 99.912-99.93 261.64 0 361.567 99.913 99.913 261.639 99.928 361.566 0 99.913-99.912 99.929-261.64 0-361.567z" fill="#ffebd2"/><path d="m231.345 1.208c-120.675 11.425-217.175 106.927-229.875 227.456-1.381 13.105 9.531 24.245 22.666 23.125 121.129-10.309 218.471-106.245 230.092-227.673 1.256-13.121-9.76-24.144-22.883-22.908z" fill="#fff3e4"/><path d="m349.094 143.472-83.036 67.938v-51.685c0-17.691-20.615-27.448-34.298-16.253l-117.333 96c-10.231 8.37-10.3 24.079 0 32.506l117.333 96c13.592 11.122 34.298 1.51 34.298-16.253v-51.685l83.036 67.938c13.678 11.192 34.298 1.442 34.298-16.253v-192c-.001-17.691-20.615-27.448-34.298-16.253z" fill="#c79a83"/></svg>