<svg fill="none" height="512" viewBox="0 0 32 32" width="512" xmlns="http://www.w3.org/2000/svg"><rect fill="#fffadd" height="30" rx="6" width="30" x="1" y="1"/><g clip-rule="evenodd" fill-rule="evenodd"><path d="m9.56213 8c-.86274 0-1.56213.69939-1.56213 1.56213v12.87577c0 .8627.69939 1.5621 1.56213 1.5621h12.87577c.8627 0 1.5621-.6994 1.5621-1.5621v-12.87577c0-.86274-.6994-1.56213-1.5621-1.56213z" fill="#ffd200"/><path d="m16.3013 11.9118c.1663.1663.1663.4361 0 .6025l-3.4858 3.4857 3.4858 3.4857c.1663.1664.1663.4361 0 .6025-.1664.1664-.4362.1664-.6025 0l-3.787-3.787c-.0799-.0799-.1248-.1882-.1248-.3012s.0449-.2214.1248-.3013l3.787-3.7869c.1663-.1664.4361-.1664.6025 0z" fill="#fae780"/><path d="m19.3308 11.9118c.1664.1663.1664.4361 0 .6025l-3.4857 3.4857 3.4857 3.4857c.1664.1664.1664.4361 0 .6025s-.4361.1664-.6025 0l-3.787-3.787c-.0799-.0799-.1248-.1882-.1248-.3012s.0449-.2214.1248-.3013l3.787-3.7869c.1664-.1664.4361-.1664.6025 0z" fill="#fae780"/></g></svg>